<?xml version="1.0" standalone="no"?>
<!DOCTYPE svg PUBLIC "-//W3C//DTD SVG 20010904//EN"
 "http://www.w3.org/TR/2001/REC-SVG-20010904/DTD/svg10.dtd">
<svg version="1.0" xmlns="http://www.w3.org/2000/svg"
 width="512.000000pt" height="512.000000pt" viewBox="0 0 512.000000 512.000000"
 preserveAspectRatio="xMidYMid meet">
<metadata>
Created by potrace 1.11, written by Peter Selinger 2001-2013
</metadata>
<g transform="translate(0.000000,512.000000) scale(0.100000,-0.100000)"
fill="#000000" stroke="none">
<path d="M475 4093 c-31 -7 -159 -55 -165 -63 -3 -4 -18 -14 -35 -23 -62 -33
-176 -163 -203 -232 -6 -16 -17 -43 -23 -60 -20 -50 -23 -76 -23 -185 0 -106
6 -157 25 -192 6 -11 12 -27 14 -37 5 -29 70 -123 117 -171 48 -48 85 -80 93
-80 3 0 23 -11 44 -24 21 -14 55 -28 75 -31 20 -4 36 -10 36 -14 0 -4 6 -8 13
-8 24 -1 90 -13 100 -20 6 -4 7 -1 2 6 -5 10 -3 11 11 4 24 -11 85 -7 179 12
17 3 67 24 112 45 84 41 195 137 226 197 40 74 68 139 73 167 4 17 8 42 11 56
7 38 7 139 -1 190 -12 76 -59 187 -104 242 -28 35 -110 118 -116 118 -3 0 -24
13 -48 29 -77 52 -177 79 -292 78 -56 0 -110 -2 -121 -4z"/>
<path d="M1430 4069 c-109 -57 -171 -158 -170 -273 0 -32 6 -89 10 -93 3 -3 4
-7 15 -40 4 -13 11 -23 16 -23 5 0 9 -6 9 -13 0 -33 125 -126 180 -134 59 -9
119 -9 149 -1 50 13 91 31 91 40 0 5 6 8 12 8 20 0 89 81 111 130 31 70 29
189 -6 255 -35 67 -72 106 -132 140 -44 25 -62 29 -140 30 -82 2 -95 0 -145
-26z"/>
<path d="M3378 4095 c-2 -2 -26 -6 -53 -9 -28 -3 -50 -6 -50 -7 0 -1 -9 -3
-20 -5 -11 -1 -31 -5 -45 -9 -14 -3 -35 -8 -47 -11 -12 -2 -35 -9 -50 -15 -16
-6 -39 -13 -52 -15 -14 -3 -29 -8 -35 -12 -6 -3 -16 -7 -22 -8 -6 -1 -41 -16
-78 -33 -37 -17 -71 -31 -76 -31 -5 0 -10 -3 -12 -7 -1 -5 -28 -21 -58 -37
-157 -83 -391 -292 -487 -436 -71 -109 -108 -171 -144 -248 -41 -86 -113 -292
-105 -300 3 -2 1 -14 -4 -26 -4 -13 -11 -40 -14 -62 -4 -21 -9 -52 -12 -69 -3
-16 -7 -64 -8 -106 -2 -42 -6 -81 -9 -86 -4 -6 -3 -13 0 -17 4 -4 8 -35 9 -69
4 -94 11 -175 18 -185 3 -5 7 -24 10 -43 17 -137 126 -404 225 -549 161 -237
379 -425 631 -544 85 -40 198 -83 240 -91 8 -2 33 -8 55 -14 22 -5 56 -13 75
-16 19 -4 51 -9 70 -13 50 -8 407 -7 454 2 21 4 50 9 65 11 14 2 26 4 26 5 0
1 9 3 19 5 17 3 57 14 76 20 3 1 19 5 35 9 17 4 37 10 45 13 8 4 17 7 20 8 3
1 18 7 33 13 16 7 30 12 32 12 13 0 170 79 225 114 98 60 220 157 297 236 76
78 77 79 118 135 17 22 33 42 37 45 13 10 88 136 127 215 45 89 103 236 96
243 -2 3 0 13 6 24 10 19 15 35 25 88 2 14 7 32 10 40 18 49 27 443 12 520 -4
19 -9 47 -12 63 -3 15 -8 37 -10 50 -3 12 -9 37 -15 55 -5 17 -7 32 -4 32 3 0
0 7 -7 15 -7 8 -9 15 -5 15 4 0 2 7 -5 15 -7 8 -9 15 -5 15 4 0 2 6 -4 13 -6
8 -12 22 -14 33 -8 40 -76 187 -116 249 -14 22 -26 42 -26 45 -2 10 -72 106
-125 169 -138 164 -301 293 -495 389 -92 46 -296 124 -313 120 -4 -1 -29 3
-57 10 -27 6 -63 15 -80 18 -34 7 -410 15 -417 9z"/>
<path d="M1287 3308 c-42 -37 -38 -92 8 -122 49 -32 115 8 115 69 0 62 -76 95
-123 53z"/>
<path d="M1613 3309 c-53 -24 -84 -62 -99 -119 -19 -72 -2 -130 53 -182 31
-30 105 -59 134 -52 10 2 28 6 38 8 41 9 79 36 106 76 61 88 26 226 -67 266
-57 24 -118 25 -165 3z"/>
<path d="M1280 3085 c-18 -19 -22 -31 -17 -61 6 -35 34 -67 49 -58 5 3 8 1 8
-5 0 -10 12 -9 46 2 26 9 54 61 47 87 -16 60 -91 80 -133 35z"/>
<path d="M855 2859 c-22 -4 -43 -5 -47 -2 -5 2 -14 1 -20 -4 -7 -4 -22 -8 -33
-9 -23 -2 -133 -33 -155 -45 -8 -4 -40 -20 -70 -34 -30 -15 -79 -44 -109 -63
-57 -38 -182 -157 -215 -205 -11 -16 -28 -38 -38 -49 -10 -12 -18 -25 -18 -29
0 -5 -13 -31 -30 -59 -16 -27 -27 -50 -25 -50 3 0 -3 -12 -12 -27 -10 -15 -16
-27 -14 -28 3 0 -14 -70 -26 -105 -18 -50 -25 -308 -11 -380 4 -19 9 -48 13
-65 3 -16 9 -39 14 -50 8 -17 21 -49 26 -65 1 -3 7 -18 13 -33 7 -16 12 -30
12 -33 0 -3 25 -43 55 -88 49 -75 146 -184 201 -226 70 -54 94 -70 94 -64 0 4
8 0 18 -9 35 -32 177 -89 257 -104 17 -3 37 -9 45 -13 18 -9 310 -6 355 4 320
71 585 301 689 602 52 150 67 342 37 484 -6 30 -13 65 -15 76 -3 12 -19 57
-37 100 -64 157 -187 311 -330 411 -64 45 -188 108 -225 115 -10 1 -21 6 -24
10 -3 3 -18 8 -35 11 -16 3 -40 8 -51 11 -88 19 -223 27 -289 15z"/>
</g>
</svg>
