<svg xmlns="http://www.w3.org/2000/svg" viewBox="0 0 820 500">
  <title>Equreka</title>
  <path fill="black" d="M820,250c0,138.07-111.93,250-250,250S320,388.07,320,250,431.93,0,570,0,820,111.93,820,250ZM150,200A150,150,0,1,0,300,350,150,150,0,0,0,150,200ZM92.5,0A92.5,92.5,0,1,0,185,92.5,92.5,92.5,0,0,0,92.5,0ZM250,0a50,50,0,1,0,50,50A50,50,0,0,0,250,0Zm20,125a30,30,0,1,0,30,30A30,30,0,0,0,270,125Zm-57.5,0A12.5,12.5,0,1,0,225,137.5,12.5,12.5,0,0,0,212.5,125Zm0,35A12.5,12.5,0,1,0,225,172.5,12.5,12.5,0,0,0,212.5,160Z"/>
</svg>